<?xml version="1.0" standalone="no"?>
<!DOCTYPE svg PUBLIC "-//W3C//DTD SVG 20010904//EN"
 "http://www.w3.org/TR/2001/REC-SVG-20010904/DTD/svg10.dtd">
<svg version="1.0" xmlns="http://www.w3.org/2000/svg"
 width="700.000000pt" height="700.000000pt" viewBox="0 0 700.000000 700.000000"
 preserveAspectRatio="xMidYMid meet">
<metadata>
Created by potrace 1.11, written by Peter Selinger 2001-2013
</metadata>
<g transform="translate(0.000000,700.000000) scale(0.100000,-0.100000)"
fill="#000000" stroke="none">
<path d="M3395 6883 c-395 -376 -820 -637 -1345 -826 -372 -134 -444 -147
-960 -172 -179 -9 -359 -20 -400 -23 l-75 -7 -12 -84 c-19 -133 -33 -390 -33
-601 0 -1269 389 -2584 1028 -3477 356 -497 813 -952 1324 -1316 158 -113 357
-240 475 -304 l86 -47 61 32 c34 17 121 70 193 116 701 446 1355 1080 1826
1767 567 827 819 1630 868 2763 14 336 -2 742 -42 1056 -17 133 1 120 -162
120 -334 0 -750 47 -1087 122 -537 119 -1068 424 -1565 899 l-80 77 -100 -95z
m175 -1397 c662 -120 1173 -630 1296 -1291 26 -139 26 -431 1 -566 l-18 -97
-96 60 c-196 123 -434 224 -623 265 -131 28 -448 25 -590 -5 -298 -64 -577
-188 -999 -444 -368 -224 -584 -343 -606 -334 -20 7 -130 240 -163 346 -66
208 -90 417 -73 612 21 226 63 382 156 575 238 497 705 826 1275 897 71 9 358
-3 440 -18z"/>
</g>
</svg>
