<?xml version="1.0" standalone="no"?>
<!DOCTYPE svg PUBLIC "-//W3C//DTD SVG 20010904//EN"
 "http://www.w3.org/TR/2001/REC-SVG-20010904/DTD/svg10.dtd">
<svg version="1.0" xmlns="http://www.w3.org/2000/svg"
 width="700.000000pt" height="700.000000pt" viewBox="0 0 700.000000 700.000000"
 preserveAspectRatio="xMidYMid meet">
<metadata>
Created by potrace 1.11, written by Peter Selinger 2001-2013
</metadata>
<g transform="translate(0.000000,700.000000) scale(0.100000,-0.100000)"
fill="#000000" stroke="none">
<path d="M3450 6934 c-129 -134 -378 -336 -580 -471 -277 -186 -577 -329 -945
-451 -263 -88 -375 -106 -805 -127 -402 -19 -500 -26 -505 -35 -2 -4 -12 -76
-22 -161 -24 -217 -24 -809 0 -1069 65 -682 212 -1304 452 -1907 328 -823 877
-1546 1630 -2148 240 -192 512 -377 724 -492 l83 -46 44 21 c76 37 313 189
467 300 670 480 1252 1089 1674 1752 332 522 529 1008 648 1597 128 639 155
1375 74 2058 -6 50 -12 97 -15 106 -4 14 -36 17 -237 22 -505 14 -956 85
-1312 207 -396 136 -884 453 -1250 812 l-81 78 -44 -46z m113 -1444 c665 -113
1193 -641 1307 -1305 24 -142 27 -374 6 -515 -24 -155 -14 -149 -136 -74 -535
332 -1001 369 -1595 127 -163 -66 -364 -174 -695 -373 -162 -98 -344 -203
-405 -234 -129 -65 -110 -74 -190 89 -64 130 -105 251 -136 395 -31 143 -33
444 -5 595 62 332 231 645 475 877 238 227 522 368 851 423 122 21 388 18 523
-5z"/>
</g>
</svg>
