<svg version="1.1"
  xmlns="http://www.w3.org/2000/svg"
  xmlns:xlink="http://www.w3.org/1999/xlink" x="0px" y="0px" width="100%" height="100%" viewBox="0 0 159.661 208.519" enable-background="new 0 0 159.661 208.519" xml:space="preserve">


  <pattern id="division" patternUnits="userSpaceOnUse" x="0" y="0" width="163" height="217" viewBox="0 0 163 217">
    <g id="base">
      <rect fill="#E0760B" id="rect2985" width="163" height="217" x="0" y="0"/>
    </g>
    <g id="plain">
      <path fill="#000000" stroke="#000000" stroke-width="2" d="M158.367,145.881c0,22.642-73.914,48.666-78.748,60.321   c-4.77-8.917-52.842-28.897-71.231-47.433C16.704,150.455,158.367,2.536,158.367,2.536S158.367,134.56,158.367,145.881z"/>
    </g>

  </pattern>
  <pattern id="division-top" patternUnits="userSpaceOnUse" x="0" y="0" width="163" height="217" viewBox="0 0 163 217">
    <g id="base">
      <rect fill="#b21d38" id="rect2985" width="163" height="217" x="0" y="0"/>
    </g>

  </pattern>
  <pattern id="division-bottom" patternUnits="userSpaceOnUse" x="0" y="0" width="163" height="217" viewBox="0 0 163 217">
    <g id="plain">
      <path fill="#4a50c4" stroke="#000000" stroke-width="2" d="M158.367,145.881c0,22.642-73.914,48.666-78.748,60.321   c-4.77-8.917-52.842-28.897-71.231-47.433C16.704,150.455,158.367,2.536,158.367,2.536S158.367,134.56,158.367,145.881z"/>
    </g>

  </pattern>


  <!-- <g id="shield">
    <path fill="url(#division)" stroke="#000000" stroke-width="0" d="M158.367,145.863c0,22.642-73.914,48.666-78.748,60.321   c-5.911-11.052-78.333-39.094-78.333-60.321c0-11.322,0-144.345,0-144.345h157.082C158.367,1.518,158.367,134.542,158.367,145.863z   "/>
  </g> -->

  <g id="shield-top">
    <path fill="url(#division-top)" stroke="#000000" stroke-width="0" d="M158.367,145.863c0,22.642-73.914,48.666-78.748,60.321   c-5.911-11.052-78.333-39.094-78.333-60.321c0-11.322,0-144.345,0-144.345h157.082C158.367,1.518,158.367,134.542,158.367,145.863z   "/>
  </g>

  <g id="shield-bottom">
    <path fill="url(#division-bottom)" stroke="#000000" stroke-width="0" d="M158.367,145.863c0,22.642-73.914,48.666-78.748,60.321   c-5.911-11.052-78.333-39.094-78.333-60.321c0-11.322,0-144.345,0-144.345h157.082C158.367,1.518,158.367,134.542,158.367,145.863z   "/>
  </g>

  <g id="charge5" transform="translate(6 0) scale(.92)">

    <svg version="1.1"
      xmlns="http://www.w3.org/2000/svg"
      xmlns:xlink="http://www.w3.org/1999/xlink" x="0px" y="0px" width="100%" height="100%" viewBox="0 0 100 100" xml:space="preserve">
      <g id="charge" transform=" scale(-1 1) translate(-100) scale(0.54054054054054) translate(0 0)">
        <svg xmlns:dc="http://purl.org/dc/elements/1.1/"
          xmlns:cc="http://creativecommons.org/ns#"
          xmlns:rdf="http://www.w3.org/1999/02/22-rdf-syntax-ns#"
          xmlns:svg="http://www.w3.org/2000/svg"
          xmlns="http://www.w3.org/2000/svg"
          xmlns:sodipodi="http://sodipodi.sourceforge.net/DTD/sodipodi-0.dtd"
          xmlns:inkscape="http://www.inkscape.org/namespaces/inkscape" width="185" height="185" id="svg1897" sodipodi:version="0.32" inkscape:version="0.47pre1 r21720" version="1.0" sodipodi:docname="sun.svg" inkscape:output_extension="org.inkscape.output.svg.inkscape">
          <defs id="defs1899">
            <inkscape:perspective sodipodi:type="inkscape:persp3d" inkscape:vp_x="0 : 92.5 : 1" inkscape:vp_y="0 : 1000 : 0" inkscape:vp_z="185 : 92.5 : 1" inkscape:persp3d-origin="92.5 : 61.666667 : 1" id="perspective16"/>
          </defs>
          <sodipodi:namedview id="base" pagecolor="#ffffff" bordercolor="#666666" borderopacity="1.0" inkscape:pageopacity="0.0" inkscape:pageshadow="2" inkscape:zoom="1.0357254" inkscape:cx="281.11143" inkscape:cy="92.637834" inkscape:document-units="px" inkscape:current-layer="layer1" width="185px" height="185px" inkscape:window-width="1024" inkscape:window-height="719" inkscape:window-x="0" inkscape:window-y="25" showgrid="false" inkscape:window-maximized="0"/>
          <metadata id="metadata1902">
            <rdf:RDF>
              <cc:Work rdf:about="">
                <dc:format>image/svg+xml</dc:format>
                <dc:type rdf:resource="http://purl.org/dc/dcmitype/StillImage"/>
              </cc:Work>
            </rdf:RDF>
          </metadata>
          <g inkscape:label="Calque 1" inkscape:groupmode="layer" id="layer1">
            <g style="opacity:1;display:inline" id="g2129" transform="matrix(0.754398,0,0,0.754398,-21.15954,-18.76888)">
              <path id="path2140" d="M 105.11477,39.110504 C 102.17883,50.59267 105.415,60.04493 111.02633,68.951421 C 115.36542,75.838578 118.21638,83.178128 118.08074,91.063889 C 116.10695,92.176892 114.22478,93.376582 112.40794,94.6676 L 67.059747,64.546843 L 97.504217,109.39474 C 96.957236,110.14997 96.424299,110.93494 95.911199,111.71162 C 87.276101,107.82168 79.170086,107.05035 71.445806,108.54454 C 60.526433,110.65678 51.25597,108.36989 41.575582,102.60037 C 47.618683,112.79551 56.634562,117.18859 66.900193,119.51864 C 74.854226,121.32401 82.043891,124.49202 87.530616,130.18575 C 86.933605,132.33122 86.440557,134.50124 86.065649,136.7041 L 32.687708,147.52829 L 85.945309,157.71304 C 86.091692,158.62931 86.268077,159.54289 86.455172,160.45762 C 77.596151,163.80944 71.29761,168.9829 66.891281,175.50286 C 60.663693,184.71759 52.535193,189.65806 41.61047,192.42346 C 53.092629,195.35942 62.529056,192.085 71.435545,186.47367 C 78.322717,182.13459 85.662262,179.28362 93.548005,179.41926 C 94.661008,181.39305 95.860699,183.27522 97.151712,185.09206 L 67.0468,230.47849 L 111.91709,199.97994 C 112.66649,200.52233 113.42524,201.07977 114.19574,201.58879 C 110.30581,210.2239 109.5503,218.36813 111.04449,226.09242 C 113.15672,237.01181 110.85404,246.24411 105.08449,255.92443 C 115.27966,249.88141 119.67275,240.8655 122.00276,230.59981 C 123.80813,222.64576 126.97615,215.4561 132.66987,209.96938 C 134.81967,210.5681 136.98078,211.05864 139.18822,211.43434 L 150.01242,264.81231 L 160.19716,211.55468 C 161.11344,211.40832 162.02702,211.23194 162.94176,211.04483 C 166.29167,219.9065 171.46854,226.20341 177.98698,230.60874 C 187.20172,236.83631 192.1422,244.96485 194.90759,255.88953 C 197.84356,244.40741 194.56914,234.97096 188.95781,226.06448 C 184.61028,219.16386 181.79118,211.84658 181.94162,203.93615 C 183.90249,202.82879 185.77039,201.63145 187.57619,200.34828 L 232.9626,230.45321 L 202.50229,185.56708 C 203.0375,184.82677 203.57028,184.06512 204.07294,183.30426 C 212.71049,187.20543 220.84832,187.95045 228.57655,186.45551 C 239.4959,184.34318 248.7282,186.64604 258.40854,192.41552 C 252.36546,182.22036 243.36542,177.86551 233.09976,175.53547 C 225.15467,173.73215 217.97318,170.50313 212.49175,164.81429 C 213.0873,162.6725 213.54423,160.51074 213.91847,158.31178 L 267.31226,147.52582 L 214.03881,137.30284 C 213.89244,136.38657 213.71605,135.47299 213.52895,134.55824 C 222.3961,131.20952 228.68589,126.03385 233.09285,119.51303 C 239.32042,110.2983 247.46479,105.39604 258.38948,102.63066 C 246.90732,99.6947 237.45506,102.93087 228.54859,108.54219 C 221.64804,112.88972 214.33074,115.70884 206.4203,115.55839 C 205.31291,113.59752 204.11557,111.72962 202.83241,109.92383 L 232.95317,64.575626 L 188.05121,94.997716 C 187.31089,94.46251 186.54926,93.929741 185.7884,93.42708 C 189.68433,84.794474 190.44966,76.685953 188.95546,68.961682 C 186.84319,58.042297 189.13014,48.771824 194.89965,39.091458 C 184.7045,45.134549 180.34963,54.134589 178.0196,64.40023 C 176.21221,72.363189 172.98893,79.57622 167.27604,85.062322 C 165.1408,84.469319 162.98791,83.954595 160.79592,83.581529 L 150.00993,30.187749 L 139.78695,83.461188 C 138.87069,83.607559 137.95711,83.783943 137.04237,83.971054 C 133.69115,75.109685 128.51808,68.814186 121.99714,64.407155 C 112.78241,58.179565 107.88016,50.03524 105.11477,39.110504 z " style="opacity:1;color:white;fill:#ffbe2e;fill-opacity:1;fill-rule:nonzero;stroke:white;stroke-width:3.97667933;stroke-linecap:butt;stroke-linejoin:miter;marker:none;marker-start:none;marker-mid:none;marker-end:none;stroke-miterlimit:4;stroke-dasharray:none;stroke-dashoffset:0;stroke-opacity:1;visibility:visible;display:inline;overflow:visible"/>
            </g>
          </g>
        </svg>
      </g>
    </svg>
  </g>

  <g id="shield_outline">
    <path fill="none" stroke="#000000" stroke-width="0" d="M158.367,145.863c0,22.642-73.914,48.666-78.748,60.321   c-5.911-11.052-78.333-39.094-78.333-60.321c0-11.322,0-144.345,0-144.345h157.082C158.367,1.518,158.367,134.542,158.367,145.863z   "/>
  </g>



</svg>
