<?xml version="1.0" encoding="utf-8"?>
<!-- Generator: Adobe Illustrator 16.0.4, SVG Export Plug-In . SVG Version: 6.00 Build 0)  -->
<!DOCTYPE svg PUBLIC "-//W3C//DTD SVG 1.1//EN" "http://www.w3.org/Graphics/SVG/1.1/DTD/svg11.dtd">
<svg version="1.1" xmlns="http://www.w3.org/2000/svg" xmlns:xlink="http://www.w3.org/1999/xlink" x="0px" y="0px" width="1024px"
	 height="1024px" viewBox="0 0 1024 1024" enable-background="new 0 0 1024 1024" xml:space="preserve">
<g id="shield">
	<linearGradient id="SVGID_1_" gradientUnits="userSpaceOnUse" x1="145.6577" y1="187.7041" x2="826.6235" y2="672.1796">
		<stop  offset="0" style="stop-color:#2876FF"/>
		<stop  offset="1" style="stop-color:#24E8FF"/>
	</linearGradient>
	<path fill="url(#SVGID_1_)" stroke="#000000" stroke-width="10" stroke-miterlimit="10" d="M94.727,172.408
		c0,0-35.656,216.48,68.764,466.68c106.875,256.083,346.368,375.045,346.368,375.045s225.394-117.153,352.735-366.742
		c107.964-211.608,64.944-477.529,64.944-477.529s-134.339,2.151-231.762-34.383C593.903,97.276,511.132,10.684,511.132,10.684
		s-72.584,78.952-182.098,122.248C222.221,175.161,222.16,163.153,94.727,172.408z"/>
</g>
<g id="solar">
	<circle fill="#FCEE21" stroke="#FCEE21" stroke-width="10" stroke-miterlimit="10" cx="481.538" cy="451.745" r="229.215"/>
</g>
<g id="hillier_1_">
	<g>
		<defs>
			<path id="SVGID_2_" d="M94.727,172.408c0,0-35.656,216.48,68.764,466.68c106.875,256.083,346.368,375.045,346.368,375.045
				s225.395-117.153,352.735-366.742c107.964-211.608,64.944-477.529,64.944-477.529s-134.339,2.151-231.762-34.383
				C593.903,97.276,511.132,10.684,511.132,10.684s-72.584,78.952-182.098,122.248C222.221,175.161,222.16,163.153,94.727,172.408z"
				/>
		</defs>
		<clipPath id="SVGID_3_">
			<use xlink:href="#SVGID_2_"  overflow="visible"/>
		</clipPath>
		<path clip-path="url(#SVGID_3_)" fill="#1BCF30" d="M47.61,655.54c54.757-34.382,161.722-45.843,236.854-80.225
			s155.357-108.24,259.777-118.427c104.42-10.188,184.645,64.944,248.315,114.607s100.601,59.851,188.465,78.952
			S904.617,980.26,904.617,980.26l-412.586,38.203l-356.556-16.555L47.61,655.54z"/>
		<path clip-path="url(#SVGID_3_)" fill="#0DB046" d="M82.344,721.082c54.757-34.382,161.722-45.843,236.854-80.225
			s155.357-108.24,259.776-118.428c104.42-10.187,184.646,64.944,248.316,114.607s100.601,59.851,188.465,78.952
			s-76.404,329.812-76.404,329.812l-412.586,38.203l-356.556-16.555L82.344,721.082z"/>
		<path clip-path="url(#SVGID_3_)" fill="#009230" d="M122.681,787.74c54.757-34.382,161.723-45.843,236.854-80.225
			s155.357-108.24,259.776-118.427c104.42-10.188,184.646,64.943,248.316,114.606s100.601,59.851,188.465,78.952
			s-76.404,329.812-76.404,329.812l-412.587,38.204l-356.555-16.556L122.681,787.74z"/>
	</g>
</g>
<g id="shield_border">
	<path fill="none" stroke="#000000" stroke-width="10" stroke-miterlimit="10" d="M94.727,172.408c0,0-35.656,216.48,68.764,466.68
		c106.875,256.083,346.368,375.045,346.368,375.045s225.395-117.153,352.735-366.742c107.964-211.608,64.944-477.529,64.944-477.529
		s-134.339,2.151-231.762-34.383C593.903,97.276,511.132,10.684,511.132,10.684s-72.584,78.952-182.098,122.248
		C222.221,175.161,222.16,163.153,94.727,172.408z"/>
</g>
</svg>
